<?xml version="1.0" encoding="UTF-8"?>
<svg xmlns="http://www.w3.org/2000/svg" xmlns:xlink="http://www.w3.org/1999/xlink" width="55px" height="55px" viewBox="0 0 55 55" version="1.1">
<g id="surface1">
<path style=" stroke:none;fill-rule:nonzero;fill:rgb(0%,0%,0%);fill-opacity:1;" d="M 25.550781 34.996094 C 23.011719 34.996094 21.738281 35.398438 21.738281 36.195312 C 21.738281 36.890625 22.859375 37.316406 25.101562 37.464844 L 29.21875 37.464844 C 34.203125 37.464844 36.699219 37.039062 36.699219 36.195312 C 36.699219 35.398438 35.425781 34.996094 32.886719 34.996094 L 25.550781 34.996094 M 25.550781 30.359375 C 23.359375 30.359375 22.136719 30.609375 21.890625 31.105469 C 21.789062 31.203125 21.738281 31.359375 21.738281 31.554688 C 21.738281 32.101562 22.261719 32.425781 23.308594 32.527344 C 24.605469 32.675781 26.574219 32.75 29.21875 32.75 C 31.863281 32.75 33.855469 32.675781 35.199219 32.527344 C 36.199219 32.425781 36.699219 32.101562 36.699219 31.554688 C 36.699219 30.757812 35.425781 30.359375 32.886719 30.359375 L 25.550781 30.359375 M 39.464844 33.574219 L 40.964844 39.335938 C 40.964844 41.078125 39.191406 42.101562 35.648438 42.402344 C 38.242188 43.398438 40.664062 43.894531 42.90625 43.894531 C 43.207031 43.894531 44.679688 43.824219 47.316406 43.671875 C 49.515625 43.671875 51.308594 44.820312 52.703125 47.113281 C 52.902344 47.507812 53.152344 47.957031 53.453125 48.460938 L 50.761719 52.574219 C 49.964844 53.566406 49.113281 54.21875 48.214844 54.519531 C 48.019531 53.472656 46.421875 52.824219 43.433594 52.574219 L 41.636719 52.421875 C 35.5 51.925781 31.363281 50.601562 29.21875 48.460938 C 27.277344 50.503906 24.304688 51.675781 20.320312 51.972656 C 19.421875 52.074219 18.246094 52.222656 16.800781 52.421875 C 13.164062 52.722656 11.042969 53.246094 10.445312 53.992188 C 10.347656 54.144531 10.269531 54.316406 10.222656 54.519531 C 8.921875 53.96875 7.699219 52.722656 6.554688 50.78125 C 6.105469 49.976562 5.585938 49.207031 4.984375 48.460938 C 6.332031 45.96875 7.777344 44.46875 9.324219 43.972656 C 9.875 43.769531 10.46875 43.671875 11.121094 43.671875 L 15.53125 43.894531 C 17.828125 43.894531 20.242188 43.398438 22.789062 42.402344 C 19.246094 42.101562 17.480469 41.078125 17.480469 39.335938 C 17.480469 39.183594 17.875 37.914062 18.671875 35.519531 C 18.921875 34.722656 19.050781 34.175781 19.050781 33.875 C 16.003906 30.183594 14.484375 26.917969 14.484375 24.078125 C 14.484375 20.789062 16.105469 17.792969 19.34375 15.101562 C 22.238281 12.65625 24.335938 11.363281 25.628906 11.210938 C 24.53125 9.863281 23.980469 8.46875 23.980469 7.023438 C 23.980469 4.679688 25.15625 3.230469 27.5 2.683594 C 28.050781 2.535156 28.621094 2.457031 29.21875 2.457031 C 31.710938 2.457031 33.335938 3.386719 34.078125 5.226562 L 34.457031 6.796875 L 34.457031 7.023438 C 34.457031 8.417969 33.90625 9.816406 32.808594 11.210938 C 33.753906 11.457031 35.175781 12.230469 37.074219 13.53125 C 41.660156 16.71875 43.953125 20.238281 43.953125 24.078125 C 43.953125 26.96875 42.457031 30.136719 39.464844 33.574219 M 30.566406 26.621094 L 30.566406 23.179688 L 33.179688 23.179688 L 33.179688 20.339844 L 30.566406 20.339844 L 30.566406 17.121094 L 27.871094 17.121094 L 27.871094 20.339844 L 25.257812 20.339844 L 25.257812 23.179688 L 27.871094 23.179688 L 27.871094 26.621094 L 30.566406 26.621094 M 29.21875 5.527344 C 28.222656 5.527344 27.601562 5.976562 27.347656 6.875 L 27.277344 7.324219 C 27.277344 8.269531 27.773438 8.867188 28.769531 9.117188 C 28.917969 9.167969 29.070312 9.191406 29.21875 9.191406 C 30.464844 9.191406 31.089844 8.570312 31.089844 7.324219 C 31.089844 6.125 30.464844 5.527344 29.21875 5.527344 "/>
</g>
</svg>
