<?xml version="1.0" encoding="UTF-8"?>
<svg xmlns="http://www.w3.org/2000/svg" xmlns:xlink="http://www.w3.org/1999/xlink" width="55px" height="55px" viewBox="0 0 55 54" version="1.1">
<defs>
<clipPath id="clip1">
  <path d="M 6 3 L 52 3 L 52 52 L 6 52 Z M 6 3 "/>
</clipPath>
<clipPath id="clip2">
  <path d="M 30.648438 33.335938 C 30.648438 34.214844 30.023438 34.65625 28.777344 34.65625 C 27.382812 34.65625 26.683594 34.214844 26.683594 33.335938 C 26.683594 29.269531 25.3125 25.964844 22.570312 23.421875 C 20.125 21.265625 17.757812 20.191406 15.464844 20.191406 C 12.074219 20.191406 9.953125 21.511719 9.105469 24.15625 L 8.808594 26.136719 L 8.808594 26.285156 C 8.808594 28.242188 10.277344 30.960938 13.222656 34.4375 C 14.019531 35.316406 14.691406 36.003906 15.242188 36.492188 C 16.039062 37.128906 17.359375 37.445312 19.203125 37.445312 C 21.148438 37.445312 24.289062 37.078125 28.628906 36.34375 C 33.015625 37.078125 36.183594 37.445312 38.128906 37.445312 C 40.023438 37.445312 41.34375 37.128906 42.09375 36.492188 C 44.1875 34.679688 45.929688 32.476562 47.328125 29.882812 C 48.125 28.414062 48.523438 27.214844 48.523438 26.285156 C 48.523438 23.199219 47.101562 21.265625 44.261719 20.484375 C 43.511719 20.289062 42.714844 20.191406 41.867188 20.191406 C 39.574219 20.191406 37.230469 21.292969 34.835938 23.496094 C 32.042969 25.941406 30.648438 29.222656 30.648438 33.335938 M 46.878906 26.285156 C 46.878906 28.242188 45.507812 30.542969 42.765625 33.1875 L 40.820312 34.800781 L 40.074219 35.242188 C 39.125 35.390625 38.128906 35.464844 37.082031 35.464844 C 33.988281 35.464844 32.445312 34.851562 32.445312 33.628906 C 32.542969 29.859375 33.691406 26.921875 35.882812 24.816406 C 37.777344 22.953125 39.722656 22.023438 41.71875 22.023438 C 44.261719 22.023438 45.882812 22.929688 46.582031 24.742188 L 46.878906 26.285156 M 39.773438 44.9375 C 39.773438 43.664062 36.109375 43.027344 28.777344 43.027344 C 26.785156 43.027344 25.015625 43.101562 23.46875 43.246094 L 21.671875 43.394531 C 18.980469 43.738281 17.636719 44.226562 17.636719 44.863281 C 17.636719 45.597656 18.308594 45.964844 19.652344 45.964844 L 28.703125 45.230469 L 37.679688 45.964844 C 39.074219 45.964844 39.773438 45.621094 39.773438 44.9375 M 43.960938 46.699219 C 43.863281 50.027344 38.777344 51.691406 28.703125 51.691406 C 18.730469 51.691406 13.671875 50.027344 13.519531 46.699219 C 13.472656 43.566406 12.996094 40.773438 12.101562 38.328125 C 11.550781 37.003906 10.503906 35.316406 8.957031 33.261719 C 7.015625 30.664062 6.042969 28.363281 6.042969 26.359375 C 6.042969 23.222656 7.414062 20.800781 10.15625 19.085938 C 11.703125 18.109375 13.421875 17.617188 15.316406 17.617188 C 17.910156 17.617188 20.378906 18.550781 22.722656 20.410156 C 22.722656 18.15625 22.945312 16.617188 23.394531 15.78125 C 23.742188 14.851562 24.890625 13.726562 26.835938 12.40625 L 26.835938 10.714844 L 23.769531 8.878906 L 23.769531 6.238281 L 26.535156 6.238281 L 27.433594 3.519531 L 29.976562 3.519531 L 30.949219 6.238281 L 33.640625 6.238281 L 33.640625 8.878906 L 30.648438 10.714844 L 30.648438 12.40625 C 32.542969 13.777344 33.714844 14.949219 34.164062 15.929688 L 34.6875 18.058594 C 34.738281 18.648438 34.789062 19.429688 34.839844 20.410156 C 37.179688 18.550781 39.601562 17.617188 42.09375 17.617188 C 45.433594 17.617188 48.027344 18.867188 49.871094 21.363281 C 50.917969 22.832031 51.441406 24.496094 51.441406 26.359375 C 51.441406 28.363281 50.46875 30.691406 48.523438 33.332031 L 46.804688 35.683594 C 44.960938 38.425781 44.011719 42.097656 43.960938 46.699219 M 10.53125 26.285156 C 10.53125 24.226562 11.578125 22.90625 13.671875 22.316406 C 14.269531 22.121094 14.890625 22.023438 15.539062 22.023438 C 17.636719 22.023438 19.628906 22.953125 21.523438 24.816406 C 23.667969 26.96875 24.789062 29.90625 24.890625 33.628906 C 24.941406 34.703125 23.792969 35.316406 21.449219 35.464844 L 20.328125 35.464844 C 19.332031 35.464844 18.308594 35.390625 17.261719 35.242188 C 15.617188 34.460938 13.96875 32.917969 12.324219 30.617188 C 11.128906 28.902344 10.53125 27.457031 10.53125 26.285156 "/>
</clipPath>
</defs>
<g id="surface1">
<g clip-path="url(#clip1)" clip-rule="nonzero">
<g clip-path="url(#clip2)" clip-rule="nonzero">
<path style=" stroke:none;fill-rule:nonzero;fill:rgb(0%,0%,0%);fill-opacity:1;" d="M 30.648438 33.335938 C 30.648438 34.214844 30.023438 34.65625 28.777344 34.65625 C 27.382812 34.65625 26.683594 34.214844 26.683594 33.335938 C 26.683594 29.269531 25.3125 25.964844 22.570312 23.421875 C 20.125 21.265625 17.757812 20.191406 15.464844 20.191406 C 12.074219 20.191406 9.953125 21.511719 9.105469 24.15625 L 8.808594 26.136719 L 8.808594 26.285156 C 8.808594 28.242188 10.277344 30.960938 13.222656 34.4375 C 14.019531 35.316406 14.691406 36.003906 15.242188 36.492188 C 16.039062 37.128906 17.359375 37.445312 19.203125 37.445312 C 21.148438 37.445312 24.289062 37.078125 28.628906 36.34375 C 33.015625 37.078125 36.183594 37.445312 38.128906 37.445312 C 40.023438 37.445312 41.34375 37.128906 42.09375 36.492188 C 44.1875 34.679688 45.929688 32.476562 47.328125 29.882812 C 48.125 28.414062 48.523438 27.214844 48.523438 26.285156 C 48.523438 23.199219 47.101562 21.265625 44.261719 20.484375 C 43.511719 20.289062 42.714844 20.191406 41.867188 20.191406 C 39.574219 20.191406 37.230469 21.292969 34.835938 23.496094 C 32.042969 25.941406 30.648438 29.222656 30.648438 33.335938 M 46.878906 26.285156 C 46.878906 28.242188 45.507812 30.542969 42.765625 33.1875 L 40.820312 34.800781 L 40.074219 35.242188 C 39.125 35.390625 38.128906 35.464844 37.082031 35.464844 C 33.988281 35.464844 32.445312 34.851562 32.445312 33.628906 C 32.542969 29.859375 33.691406 26.921875 35.882812 24.816406 C 37.777344 22.953125 39.722656 22.023438 41.71875 22.023438 C 44.261719 22.023438 45.882812 22.929688 46.582031 24.742188 L 46.878906 26.285156 M 39.773438 44.9375 C 39.773438 43.664062 36.109375 43.027344 28.777344 43.027344 C 26.785156 43.027344 25.015625 43.101562 23.46875 43.246094 L 21.671875 43.394531 C 18.980469 43.738281 17.636719 44.226562 17.636719 44.863281 C 17.636719 45.597656 18.308594 45.964844 19.652344 45.964844 L 28.703125 45.230469 L 37.679688 45.964844 C 39.074219 45.964844 39.773438 45.621094 39.773438 44.9375 M 43.960938 46.699219 C 43.863281 50.027344 38.777344 51.691406 28.703125 51.691406 C 18.730469 51.691406 13.671875 50.027344 13.519531 46.699219 C 13.472656 43.566406 12.996094 40.773438 12.101562 38.328125 C 11.550781 37.003906 10.503906 35.316406 8.957031 33.261719 C 7.015625 30.664062 6.042969 28.363281 6.042969 26.359375 C 6.042969 23.222656 7.414062 20.800781 10.15625 19.085938 C 11.703125 18.109375 13.421875 17.617188 15.316406 17.617188 C 17.910156 17.617188 20.378906 18.550781 22.722656 20.410156 C 22.722656 18.15625 22.945312 16.617188 23.394531 15.78125 C 23.742188 14.851562 24.890625 13.726562 26.835938 12.40625 L 26.835938 10.714844 L 23.769531 8.878906 L 23.769531 6.238281 L 26.535156 6.238281 L 27.433594 3.519531 L 29.976562 3.519531 L 30.949219 6.238281 L 33.640625 6.238281 L 33.640625 8.878906 L 30.648438 10.714844 L 30.648438 12.40625 C 32.542969 13.777344 33.714844 14.949219 34.164062 15.929688 L 34.6875 18.058594 C 34.738281 18.648438 34.789062 19.429688 34.839844 20.410156 C 37.179688 18.550781 39.601562 17.617188 42.09375 17.617188 C 45.433594 17.617188 48.027344 18.867188 49.871094 21.363281 C 50.917969 22.832031 51.441406 24.496094 51.441406 26.359375 C 51.441406 28.363281 50.46875 30.691406 48.523438 33.332031 L 46.804688 35.683594 C 44.960938 38.425781 44.011719 42.097656 43.960938 46.699219 M 10.53125 26.285156 C 10.53125 24.226562 11.578125 22.90625 13.671875 22.316406 C 14.269531 22.121094 14.890625 22.023438 15.539062 22.023438 C 17.636719 22.023438 19.628906 22.953125 21.523438 24.816406 C 23.667969 26.96875 24.789062 29.90625 24.890625 33.628906 C 24.941406 34.703125 23.792969 35.316406 21.449219 35.464844 L 20.328125 35.464844 C 19.332031 35.464844 18.308594 35.390625 17.261719 35.242188 C 15.617188 34.460938 13.96875 32.917969 12.324219 30.617188 C 11.128906 28.902344 10.53125 27.457031 10.53125 26.285156 "/>
</g>
</g>
</g>
</svg>
