<?xml version="1.0" encoding="UTF-8"?>
<svg xmlns="http://www.w3.org/2000/svg" xmlns:xlink="http://www.w3.org/1999/xlink" width="55px" height="55px" viewBox="0 0 55 54" version="1.1">
<g id="surface1">
<path style=" stroke:none;fill-rule:nonzero;fill:rgb(0%,0%,0%);fill-opacity:1;" d="M 16.335938 22.738281 C 17.582031 22.738281 18.902344 22.027344 20.296875 20.609375 C 21.046875 19.875 21.421875 19.238281 21.421875 18.699219 C 21.421875 18.0625 20.820312 17.746094 19.625 17.746094 C 18.230469 17.746094 17.058594 18.355469 16.109375 19.582031 C 15.613281 20.167969 15.363281 20.78125 15.363281 21.414062 C 15.363281 22.296875 15.6875 22.738281 16.335938 22.738281 M 15.0625 6.65625 C 15.164062 6.65625 15.410156 6.632812 15.8125 6.582031 C 18.054688 6.582031 20.449219 7.316406 22.992188 8.785156 L 23.441406 9.078125 C 24.886719 6.777344 25.984375 5.628906 26.730469 5.628906 C 28.328125 6.507812 29.375 7.464844 29.871094 8.492188 C 30.121094 8.980469 30.496094 10.007812 30.996094 11.574219 C 31.394531 11.476562 31.792969 11.429688 32.191406 11.429688 C 36.378906 11.429688 40.367188 13.949219 44.160156 18.992188 C 48.695312 24.816406 50.964844 32.75 50.964844 42.785156 C 50.964844 45.035156 50.863281 47.070312 50.664062 48.878906 L 19.101562 48.878906 C 19.203125 45.601562 20.421875 42.492188 22.765625 39.554688 C 23.015625 39.160156 23.367188 38.722656 23.8125 38.230469 C 25.660156 35.929688 26.78125 34.167969 27.179688 32.945312 C 27.378906 32.308594 27.527344 31.648438 27.628906 30.960938 C 24.335938 32.234375 21.871094 34.121094 20.222656 36.617188 C 19.476562 37.839844 18.652344 39.113281 17.753906 40.433594 C 17.507812 40.828125 17.132812 41.023438 16.632812 41.023438 C 15.386719 41.023438 14.765625 40.261719 14.765625 38.746094 C 14.265625 39.382812 13.691406 39.699219 13.042969 39.699219 L 11.546875 39.332031 C 9.402344 38.792969 7.882812 37.863281 6.984375 36.542969 C 6.6875 36.101562 6.363281 35.515625 6.011719 34.78125 C 6.363281 32.675781 8.082031 28.488281 11.175781 22.222656 C 13.417969 17.71875 14.8125 14.488281 15.363281 12.53125 C 15.414062 12.089844 15.4375 11.453125 15.4375 10.621094 C 15.4375 9.933594 15.3125 8.613281 15.0625 6.65625 M 10.574219 32.429688 C 9.378906 32.429688 8.582031 32.945312 8.183594 33.972656 C 8.082031 34.21875 8.03125 34.460938 8.03125 34.707031 C 8.03125 34.902344 8.109375 35.148438 8.257812 35.441406 C 9.554688 35.441406 10.351562 34.902344 10.652344 33.824219 C 10.699219 33.679688 10.726562 33.507812 10.726562 33.3125 C 10.726562 33.214844 10.675781 32.921875 10.574219 32.429688 M 47.300781 43.738281 L 47.300781 41.023438 C 47.300781 33.042969 45.230469 26.507812 41.09375 21.414062 C 37.5 17.007812 34.234375 14.804688 31.292969 14.804688 L 30.394531 14.660156 C 30.296875 14.707031 30.222656 14.757812 30.171875 14.804688 C 29.523438 14.804688 29.199219 15.074219 29.199219 15.613281 C 29.199219 15.808594 29.347656 16.054688 29.648438 16.347656 C 32.339844 16.59375 35.28125 18.476562 38.472656 22.003906 C 42.511719 26.605469 44.53125 33.261719 44.53125 41.976562 L 44.53125 42.417969 C 44.53125 44.570312 45.007812 45.648438 45.953125 45.648438 C 46.75 45.648438 47.199219 45.011719 47.300781 43.738281 "/>
</g>
</svg>
