<?xml version="1.0" encoding="UTF-8"?>
<svg xmlns="http://www.w3.org/2000/svg" xmlns:xlink="http://www.w3.org/1999/xlink" width="55px" height="55px" viewBox="0 0 55 54" version="1.1">
<g id="surface1">
<path style=" stroke:none;fill-rule:nonzero;fill:rgb(0%,0%,0%);fill-opacity:1;" d="M 14.710938 48.84375 C 14.660156 48.253906 14.636719 47.105469 14.636719 45.390625 C 14.636719 39.222656 16.582031 34.644531 20.472656 31.660156 C 21.617188 30.730469 23.015625 29.871094 24.660156 29.089844 C 22.714844 28.5 21.394531 27.058594 20.695312 24.757812 C 20.496094 24.023438 20.394531 23.261719 20.394531 22.480469 C 20.394531 19.199219 22.117188 16.875 25.558594 15.503906 C 24.660156 14.035156 24.210938 12.640625 24.210938 11.316406 C 24.210938 9.117188 25.308594 7.476562 27.5 6.398438 C 28.5 5.910156 29.570312 5.664062 30.71875 5.664062 C 33.210938 5.664062 35.054688 6.617188 36.253906 8.527344 C 36.800781 9.359375 37.074219 10.289062 37.074219 11.316406 C 37.074219 12.738281 36.652344 14.132812 35.804688 15.503906 C 37.648438 16.238281 38.96875 17.21875 39.769531 18.441406 C 40.566406 19.761719 40.964844 21.109375 40.964844 22.480469 C 40.964844 25.027344 40.066406 26.960938 38.273438 28.28125 C 37.824219 28.671875 37.324219 28.941406 36.777344 29.089844 C 41.363281 31.390625 44.332031 34.402344 45.675781 38.121094 C 46.375 40.179688 46.722656 42.601562 46.722656 45.390625 C 46.722656 47.105469 46.699219 48.257812 46.648438 48.84375 L 14.710938 48.84375 "/>
</g>
</svg>
