<?xml version="1.0" encoding="UTF-8"?>
<svg xmlns="http://www.w3.org/2000/svg" xmlns:xlink="http://www.w3.org/1999/xlink" width="55px" height="55px" viewBox="0 0 55 54" version="1.1">
<g id="surface1">
<path style=" stroke:none;fill-rule:nonzero;fill:rgb(0%,0%,0%);fill-opacity:1;" d="M 15.417969 43.980469 C 15.417969 44.761719 15.988281 45.15625 17.136719 45.15625 L 22.296875 44.789062 L 26.785156 44.566406 L 27.90625 44.566406 L 36.660156 45.007812 L 38.453125 45.15625 C 39.601562 45.15625 40.175781 44.761719 40.175781 43.980469 C 40.175781 42.558594 36.832031 41.777344 30.152344 41.628906 L 27.832031 41.628906 C 22.199219 41.628906 18.433594 42.046875 16.539062 42.878906 C 15.792969 43.171875 15.417969 43.539062 15.417969 43.980469 M 6.066406 13.285156 C 5.121094 13.285156 4.523438 13.75 4.273438 14.679688 C 4.222656 14.824219 4.199219 14.972656 4.199219 15.121094 C 4.199219 16.050781 4.671875 16.636719 5.621094 16.882812 C 5.769531 16.929688 5.917969 16.957031 6.066406 16.957031 C 7.265625 16.957031 7.863281 16.34375 7.863281 15.121094 C 7.863281 13.894531 7.265625 13.285156 6.066406 13.285156 M 15.867188 8.65625 C 14.570312 8.65625 13.921875 9.269531 13.921875 10.492188 C 13.921875 11.71875 14.570312 12.328125 15.867188 12.328125 C 17.0625 12.328125 17.660156 11.71875 17.660156 10.492188 C 17.660156 9.269531 17.0625 8.65625 15.867188 8.65625 M 39.726562 8.65625 C 38.878906 8.65625 38.304688 9.074219 38.003906 9.90625 L 37.929688 10.492188 C 37.929688 11.71875 38.527344 12.328125 39.726562 12.328125 C 40.972656 12.328125 41.59375 11.71875 41.59375 10.492188 C 41.59375 9.269531 40.972656 8.65625 39.726562 8.65625 M 49.449219 13.285156 C 48.253906 13.285156 47.652344 13.894531 47.652344 15.121094 C 47.652344 16.34375 48.253906 16.957031 49.449219 16.957031 C 50.695312 16.957031 51.320312 16.34375 51.320312 15.121094 C 51.320312 14.1875 50.84375 13.601562 49.898438 13.355469 C 49.75 13.308594 49.597656 13.285156 49.449219 13.285156 M 44.0625 48.386719 C 44.0625 49.757812 41.496094 50.710938 36.359375 51.25 L 29.105469 51.691406 L 27.757812 51.691406 C 21.675781 51.691406 17.039062 51.175781 13.847656 50.148438 C 12.300781 49.707031 11.527344 49.121094 11.527344 48.386719 C 11.527344 46.964844 11.925781 45.351562 12.722656 43.539062 C 13.273438 42.460938 13.546875 41.703125 13.546875 41.261719 C 13.546875 40.332031 12.402344 38.519531 10.105469 35.828125 C 8.859375 34.410156 8.136719 33.429688 7.9375 32.890625 C 7.9375 32.597656 7.789062 31.9375 7.488281 30.90625 L 6.515625 27.234375 C 5.867188 24.835938 5.445312 22.292969 5.246094 19.597656 C 2.953125 18.667969 1.804688 17.175781 1.804688 15.121094 C 1.804688 13.355469 2.628906 12.109375 4.273438 11.375 C 4.820312 11.128906 5.417969 11.007812 6.066406 11.007812 C 7.714844 11.007812 8.933594 11.742188 9.734375 13.210938 C 10.082031 13.847656 10.257812 14.484375 10.257812 15.121094 L 9.882812 17.910156 C 9.882812 20.113281 11.476562 22.804688 14.667969 25.988281 C 14.917969 23.980469 15.042969 21.875 15.042969 19.671875 C 15.042969 16.390625 14.445312 14.3125 13.25 13.429688 C 13.148438 13.332031 13.046875 13.257812 12.949219 13.210938 C 12.050781 12.671875 11.601562 11.71875 11.601562 10.347656 C 11.601562 8.535156 12.449219 7.285156 14.144531 6.601562 C 14.695312 6.355469 15.269531 6.234375 15.867188 6.234375 C 17.609375 6.234375 18.859375 7.015625 19.605469 8.585938 C 19.90625 9.121094 20.054688 9.710938 20.054688 10.347656 L 19.53125 13.503906 C 19.53125 16.246094 20.902344 20.429688 23.644531 26.0625 C 24.691406 21.460938 25.214844 17.933594 25.214844 15.488281 C 25.214844 13.429688 24.839844 11.546875 24.09375 9.832031 C 23.792969 9.195312 23.644531 8.707031 23.644531 8.363281 C 23.644531 6.550781 24.46875 5.304688 26.113281 4.617188 C 26.660156 4.375 27.234375 4.25 27.832031 4.25 C 29.578125 4.25 30.800781 5.058594 31.496094 6.675781 C 31.746094 7.214844 31.871094 7.777344 31.871094 8.363281 C 31.871094 8.460938 31.449219 9.757812 30.601562 12.257812 C 30.402344 12.890625 30.300781 13.96875 30.300781 15.488281 C 30.300781 17.933594 30.824219 21.460938 31.871094 26.0625 C 34.566406 20.480469 35.910156 16.292969 35.910156 13.503906 L 35.460938 10.421875 L 35.460938 10.347656 C 35.460938 8.535156 36.308594 7.285156 38.003906 6.601562 C 38.554688 6.355469 39.128906 6.234375 39.726562 6.234375 C 41.46875 6.234375 42.71875 7.015625 43.464844 8.585938 C 43.765625 9.121094 43.914062 9.710938 43.914062 10.347656 C 43.914062 11.71875 43.464844 12.695312 42.566406 13.285156 C 41.171875 14.164062 40.472656 16.320312 40.472656 19.746094 C 40.472656 21.898438 40.597656 23.980469 40.847656 25.988281 C 44.039062 22.804688 45.632812 20.113281 45.632812 17.910156 L 45.261719 15.121094 C 45.261719 13.40625 46.058594 12.183594 47.652344 11.449219 C 48.203125 11.15625 48.800781 11.007812 49.449219 11.007812 C 51.242188 11.007812 52.515625 11.792969 53.261719 13.359375 L 53.710938 14.753906 L 53.710938 15.121094 C 53.710938 17.078125 52.566406 18.570312 50.269531 19.601562 C 49.972656 22.976562 49.125 27.113281 47.726562 32.011719 C 47.628906 32.402344 47.578125 32.695312 47.578125 32.890625 C 47.578125 33.234375 47.203125 33.796875 46.457031 34.582031 L 45.558594 35.683594 C 43.164062 38.375 41.96875 40.234375 41.96875 41.261719 C 41.96875 41.554688 42.566406 43.074219 43.765625 45.816406 C 43.964844 46.796875 44.0625 47.652344 44.0625 48.386719 M 27.832031 6.382812 C 26.886719 6.382812 26.289062 6.847656 26.039062 7.777344 C 25.988281 7.921875 25.964844 8.070312 25.964844 8.21875 C 25.964844 9.148438 26.4375 9.734375 27.382812 9.980469 C 27.535156 10.027344 27.683594 10.054688 27.832031 10.054688 C 29.03125 10.054688 29.628906 9.441406 29.628906 8.21875 C 29.628906 7.335938 29.203125 6.75 28.355469 6.453125 C 28.207031 6.40625 28.03125 6.382812 27.832031 6.382812 M 41.296875 35.019531 C 41.296875 33.453125 36.808594 32.671875 27.832031 32.671875 C 18.808594 32.671875 14.296875 33.480469 14.296875 35.09375 C 14.296875 35.78125 14.945312 36.121094 16.238281 36.121094 C 17.734375 36.121094 19.605469 36 21.847656 35.753906 L 26.710938 35.609375 L 27.90625 35.609375 C 29.304688 35.609375 31.945312 35.730469 35.835938 35.976562 L 39.5 36.121094 C 40.699219 36.121094 41.296875 35.753906 41.296875 35.019531 "/>
</g>
</svg>
