<?xml version="1.0" encoding="UTF-8"?>
<svg xmlns="http://www.w3.org/2000/svg" xmlns:xlink="http://www.w3.org/1999/xlink" width="55px" height="55px" viewBox="0 0 55 54" version="1.1">
<g id="surface1">
<path style=" stroke:none;fill-rule:nonzero;fill:rgb(0%,0%,0%);fill-opacity:1;" d="M 11.90625 47.941406 L 10.484375 46.546875 L 10.484375 41.332031 L 18.039062 33.988281 L 18.039062 19.375 L 12.203125 13.722656 L 12.203125 7.1875 L 14.296875 5.128906 L 19.609375 5.128906 L 20.953125 6.378906 L 20.953125 8.214844 L 23.796875 8.214844 L 23.796875 6.378906 L 25.066406 5.128906 L 33.371094 5.128906 L 34.640625 6.378906 L 34.640625 8.214844 L 37.484375 8.214844 L 37.484375 6.378906 L 38.753906 5.128906 L 44.140625 5.128906 L 46.234375 7.1875 L 46.234375 13.722656 L 40.402344 19.375 L 40.402344 33.988281 L 47.957031 41.332031 L 47.957031 46.546875 L 46.460938 47.941406 L 11.902344 47.941406 M 20.730469 32.300781 L 20.730469 34.796875 L 37.707031 34.796875 L 37.707031 32.300781 L 20.730469 32.300781 M 20.730469 19.082031 L 20.730469 21.578125 L 37.707031 21.578125 L 37.707031 19.082031 L 20.730469 19.082031 "/>
</g>
</svg>
