<?xml version="1.0" encoding="UTF-8"?>
<svg xmlns="http://www.w3.org/2000/svg" xmlns:xlink="http://www.w3.org/1999/xlink" width="55px" height="55px" viewBox="0 0 55 54" version="1.1">
<g id="surface1">
<path style=" stroke:none;fill-rule:nonzero;fill:rgb(0%,0%,0%);fill-opacity:1;" d="M 28.488281 31.109375 C 24.996094 31.109375 22.28125 30.960938 20.335938 30.667969 C 20.683594 31.355469 20.859375 31.941406 20.859375 32.429688 C 20.859375 33.164062 20.710938 33.777344 20.410156 34.265625 C 21.855469 33.824219 24.550781 33.605469 28.488281 33.605469 C 32.429688 33.605469 35.121094 33.824219 36.566406 34.265625 C 36.265625 33.777344 36.117188 33.164062 36.117188 32.429688 C 36.117188 31.84375 36.265625 31.253906 36.566406 30.667969 C 34.222656 30.960938 31.53125 31.109375 28.488281 31.109375 M 28.488281 4.527344 C 27.441406 4.527344 26.71875 4.992188 26.320312 5.921875 C 26.21875 6.164062 26.167969 6.410156 26.171875 6.65625 C 26.171875 7.730469 26.71875 8.441406 27.816406 8.785156 C 28.015625 8.832031 28.238281 8.859375 28.488281 8.859375 C 29.636719 8.859375 30.382812 8.34375 30.734375 7.316406 C 30.78125 7.121094 30.808594 6.898438 30.808594 6.65625 C 30.808594 5.675781 30.308594 5.015625 29.3125 4.671875 C 29.011719 4.574219 28.738281 4.527344 28.488281 4.527344 M 28.488281 35.734375 C 26.59375 35.734375 24.152344 35.90625 21.160156 36.25 C 20.3125 36.347656 19.8125 36.8125 19.664062 37.644531 C 19.664062 38.230469 21.035156 38.597656 23.777344 38.746094 C 23.527344 38.695312 23.628906 38.671875 24.074219 38.671875 L 28.488281 38.671875 C 34.324219 38.671875 37.238281 38.328125 37.238281 37.644531 C 37.238281 36.519531 35.792969 35.90625 32.902344 35.808594 L 30.734375 35.808594 C 30.085938 35.808594 29.535156 35.785156 29.085938 35.734375 L 28.488281 35.734375 M 28.414062 28.980469 C 34 28.980469 37.414062 28.464844 38.660156 27.4375 C 39.507812 26.800781 40.132812 25.113281 40.53125 22.371094 C 40.28125 19.921875 38.660156 17.574219 35.667969 15.320312 C 32.875 13.167969 30.433594 11.964844 28.339844 11.722656 C 26.394531 11.964844 24.027344 13.167969 21.234375 15.320312 C 18.292969 17.570312 16.695312 19.921875 16.445312 22.371094 C 16.796875 24.914062 17.34375 26.53125 18.09375 27.214844 C 18.292969 27.414062 18.515625 27.582031 18.765625 27.730469 C 20.011719 28.5625 23.226562 28.980469 28.414062 28.980469 M 27.144531 25.382812 L 27.144531 22.148438 L 24.601562 22.148438 L 24.601562 19.285156 L 27.144531 19.285156 L 27.144531 16.128906 L 29.835938 16.128906 L 29.835938 19.285156 L 32.378906 19.285156 L 32.378906 22.148438 L 29.835938 22.148438 L 29.835938 25.382812 L 27.144531 25.382812 M 28.339844 40.363281 C 27.890625 40.363281 26.570312 41.21875 24.375 42.929688 C 22.828125 43.960938 20.335938 44.570312 16.894531 44.765625 C 14.402344 44.765625 12.410156 44.890625 10.914062 45.132812 C 9.316406 45.476562 8.519531 46.136719 8.519531 47.117188 C 8.667969 48.097656 9.191406 48.585938 10.089844 48.585938 L 14.054688 48 C 16.648438 48 19.363281 47.65625 22.207031 46.96875 C 25.449219 46.136719 27.542969 44.816406 28.488281 43.003906 C 29.835938 45.601562 33.324219 47.167969 38.960938 47.703125 L 40.90625 48 L 42.847656 48 L 46.886719 48.585938 C 47.785156 48.585938 48.308594 48.097656 48.460938 47.117188 C 48.460938 46.136719 47.660156 45.476562 46.066406 45.132812 L 38.0625 44.546875 C 35.519531 44.351562 33.074219 43.371094 30.734375 41.609375 C 29.683594 40.777344 28.886719 40.363281 28.339844 40.363281 M 28.488281 46.75 C 26.542969 48.660156 23.601562 49.835938 19.664062 50.273438 C 18.066406 50.421875 15.273438 50.765625 11.285156 51.304688 C 10.238281 51.5 9.640625 51.964844 9.492188 52.699219 C 8.542969 52.453125 7.148438 50.9375 5.300781 48.144531 C 4.855469 47.460938 4.53125 46.996094 4.328125 46.75 C 5.976562 43.667969 8.019531 42.125 10.464844 42.125 L 14.875 42.34375 C 16.921875 42.34375 19.3125 41.878906 22.054688 40.949219 C 18.515625 40.507812 16.746094 39.457031 16.746094 37.792969 L 18.242188 32.210938 L 18.242188 32.0625 C 15.25 28.832031 13.753906 25.796875 13.753906 22.957031 C 13.753906 19.726562 15.375 16.789062 18.617188 14.144531 C 21.457031 11.796875 23.550781 10.546875 24.898438 10.402344 C 23.800781 9.078125 23.253906 7.707031 23.253906 6.289062 C 23.253906 4.035156 24.398438 2.617188 26.695312 2.027344 C 27.242188 1.882812 27.839844 1.808594 28.488281 1.808594 C 30.933594 1.808594 32.527344 2.714844 33.273438 4.527344 L 33.648438 6.066406 L 33.648438 6.289062 C 33.648438 7.804688 33.125 9.175781 32.078125 10.402344 C 33.425781 10.546875 35.542969 11.820312 38.4375 14.21875 C 41.628906 16.8125 43.222656 19.726562 43.222656 22.957031 C 43.222656 25.699219 41.726562 28.734375 38.734375 32.0625 C 38.734375 32.75 38.984375 33.726562 39.484375 35 C 39.980469 36.566406 40.230469 37.496094 40.230469 37.792969 C 40.230469 39.457031 38.460938 40.507812 34.921875 40.949219 C 37.613281 41.878906 40.007812 42.34375 42.101562 42.34375 L 46.515625 42.125 C 48.957031 42.125 51.003906 43.667969 52.648438 46.75 L 50.105469 50.570312 C 49.257812 51.644531 48.382812 52.355469 47.488281 52.699219 C 47.289062 51.71875 45.839844 51.109375 43.148438 50.863281 C 43.496094 50.863281 42.75 50.789062 40.90625 50.640625 C 34.671875 50.054688 30.535156 48.757812 28.488281 46.75 "/>
</g>
</svg>
