<?xml version="1.0" encoding="UTF-8"?>
<svg xmlns="http://www.w3.org/2000/svg" xmlns:xlink="http://www.w3.org/1999/xlink" width="55px" height="55px" viewBox="0 0 55 54" version="1.1">
<g id="surface1">
<path style=" stroke:none;fill-rule:nonzero;fill:rgb(0%,0%,0%);fill-opacity:1;" d="M 29.21875 51.414062 C 19.296875 51.414062 14.261719 49.773438 14.109375 46.492188 C 13.863281 41.988281 13.089844 38.585938 11.792969 36.285156 C 11.242188 35.355469 10.472656 34.230469 9.472656 32.90625 C 7.777344 30.703125 6.832031 28.84375 6.632812 27.328125 C 6.582031 26.933594 6.558594 26.519531 6.558594 26.078125 C 6.558594 22.996094 7.878906 20.570312 10.519531 18.808594 C 11.167969 18.417969 11.84375 18.097656 12.539062 17.855469 C 15.183594 16.921875 17.800781 17.070312 20.394531 18.292969 C 21.339844 18.734375 22.289062 19.324219 23.234375 20.058594 L 23.308594 20.128906 C 23.308594 19.101562 23.359375 18 23.460938 16.824219 C 23.460938 16.484375 23.632812 16.019531 23.984375 15.429688 C 24.78125 14.15625 25.730469 13.152344 26.824219 12.417969 C 27.023438 12.320312 27.226562 12.199219 27.425781 12.050781 L 27.425781 10.289062 L 24.359375 8.527344 L 24.359375 5.882812 L 27.125 5.882812 L 28.097656 3.09375 L 30.339844 3.09375 L 31.3125 5.882812 L 34.082031 5.882812 L 34.082031 8.527344 L 31.015625 10.289062 L 31.015625 12.050781 C 33.605469 13.667969 34.929688 15.285156 34.976562 16.898438 C 35.078125 17.878906 35.128906 18.957031 35.128906 20.128906 L 35.203125 20.058594 C 38.34375 17.460938 41.636719 16.628906 45.074219 17.558594 C 45.972656 17.804688 46.820312 18.171875 47.617188 18.660156 C 50.410156 20.324219 51.832031 22.796875 51.882812 26.078125 C 51.882812 28.035156 50.882812 30.363281 48.890625 33.054688 C 47.246094 35.304688 46.222656 36.945312 45.824219 37.976562 C 44.976562 40.175781 44.476562 43.015625 44.328125 46.492188 C 44.226562 49.773438 39.191406 51.414062 29.21875 51.414062 M 29.21875 26.664062 L 31.386719 23.289062 C 31.738281 22.554688 32.011719 21.867188 32.210938 21.230469 C 32.3125 20.890625 32.359375 20.179688 32.359375 19.101562 C 32.359375 16.214844 31.339844 14.769531 29.292969 14.769531 C 27.148438 14.769531 26.078125 16.214844 26.078125 19.101562 C 26.078125 20.179688 26.128906 20.890625 26.226562 21.230469 C 26.625 22.554688 27.472656 24.121094 28.769531 25.929688 C 29.070312 26.273438 29.21875 26.519531 29.21875 26.664062 M 49.191406 26.519531 C 49.191406 24.316406 48.441406 22.625 46.945312 21.453125 C 45.699219 20.421875 44.226562 19.910156 42.53125 19.910156 C 40.390625 19.910156 38.070312 20.988281 35.578125 23.140625 C 32.636719 25.636719 30.964844 29.015625 30.566406 33.273438 C 30.566406 33.617188 31.488281 34.007812 33.332031 34.449219 C 35.476562 34.839844 39.117188 35.039062 44.253906 35.039062 L 47.621094 30.632812 C 48.667969 29.066406 49.191406 27.695312 49.191406 26.519531 M 29.21875 36.433594 C 27.972656 36.972656 24.183594 37.4375 17.851562 37.828125 C 16.902344 37.875 16.128906 37.925781 15.53125 37.972656 C 16.03125 39.835938 16.355469 41.890625 16.503906 44.144531 C 19.945312 43.066406 24.183594 42.527344 29.21875 42.527344 C 34.355469 42.527344 38.59375 43.066406 41.933594 44.144531 C 42.085938 41.695312 42.410156 39.640625 42.90625 37.972656 L 31.835938 37.09375 C 30.890625 36.945312 30.015625 36.726562 29.21875 36.433594 M 9.25 26.519531 C 9.25 28.035156 10.472656 30.335938 12.914062 33.421875 C 13.511719 34.15625 13.9375 34.695312 14.1875 35.039062 L 15.53125 35.039062 C 20.667969 35.039062 24.40625 34.695312 26.75 34.007812 C 27.5 33.8125 27.875 33.570312 27.875 33.273438 C 27.472656 29.015625 25.804688 25.636719 22.863281 23.140625 C 20.417969 20.988281 18.101562 19.910156 15.90625 19.910156 C 15.207031 19.910156 14.460938 20.054688 13.664062 20.351562 C 11.667969 20.839844 10.320312 22.136719 9.625 24.242188 L 9.25 26.226562 L 9.25 26.519531 M 29.21875 48.769531 C 33.90625 48.769531 37.148438 48.476562 38.941406 47.886719 C 39.390625 47.742188 39.617188 47.570312 39.617188 47.375 C 39.617188 46.101562 36.175781 45.464844 29.292969 45.464844 C 26.652344 45.464844 24.082031 45.636719 21.589844 45.980469 C 19.746094 46.273438 18.824219 46.738281 18.824219 47.375 C 18.824219 48.109375 21.765625 48.574219 27.648438 48.769531 L 29.21875 48.769531 "/>
</g>
</svg>
