<?xml version="1.0" encoding="UTF-8"?>
<svg xmlns="http://www.w3.org/2000/svg" xmlns:xlink="http://www.w3.org/1999/xlink" width="55px" height="55px" viewBox="0 0 55 54" version="1.1">
<g id="surface1">
<path style=" stroke:none;fill-rule:nonzero;fill:rgb(0%,0%,0%);fill-opacity:1;" d="M 11.546875 31.621094 C 12.246094 31.621094 12.59375 32.085938 12.59375 33.015625 C 12.59375 34.242188 11.972656 34.851562 10.726562 34.851562 C 10.226562 34.851562 9.976562 34.460938 9.976562 33.679688 C 9.976562 32.308594 10.5 31.621094 11.546875 31.621094 M 16.933594 22.664062 C 16.234375 22.664062 15.886719 22.246094 15.886719 21.414062 C 15.886719 20.09375 16.683594 19.015625 18.28125 18.183594 C 18.976562 17.839844 19.625 17.667969 20.222656 17.667969 C 21.273438 17.667969 21.84375 18.011719 21.945312 18.699219 C 21.945312 19.824219 21.046875 20.902344 19.253906 21.929688 C 18.355469 22.417969 17.582031 22.664062 16.933594 22.664062 M 17.53125 8.859375 C 17.730469 9.542969 17.832031 10.007812 17.832031 10.253906 C 17.832031 10.398438 17.757812 10.792969 17.605469 11.425781 C 18.40625 11.425781 19.5 11.035156 20.898438 10.253906 C 19.550781 9.566406 18.429688 9.101562 17.53125 8.859375 M 8.632812 34.117188 C 8.929688 35.292969 9.726562 36.152344 11.023438 36.6875 C 11.523438 36.886719 11.996094 36.984375 12.445312 36.984375 L 12.59375 36.984375 C 12.695312 36.984375 13.242188 36.6875 14.242188 36.101562 C 14.539062 35.90625 14.789062 35.808594 14.988281 35.808594 L 15.289062 35.808594 C 15.539062 35.808594 15.660156 35.953125 15.660156 36.25 L 15.214844 37.644531 C 15.214844 38.085938 15.5625 38.304688 16.261719 38.304688 C 16.359375 38.304688 16.984375 37.449219 18.128906 35.734375 C 20.324219 32.40625 23.441406 29.882812 27.480469 28.171875 C 27.878906 25.527344 28.875 23.203125 30.472656 21.195312 C 30.871094 20.65625 31.269531 20.386719 31.667969 20.386719 C 32.117188 20.386719 32.339844 20.707031 32.339844 21.339844 C 32.339844 21.488281 31.890625 22.882812 30.996094 25.527344 C 30.644531 26.652344 30.472656 27.484375 30.472656 28.023438 C 30.472656 28.171875 30.519531 28.488281 30.621094 28.980469 C 30.621094 32.453125 29.125 36.101562 26.132812 39.921875 C 24.136719 42.5625 23.042969 44.667969 22.84375 46.234375 L 47.523438 46.234375 C 47.722656 43.984375 47.824219 42.320312 47.824219 41.242188 C 47.824219 31.15625 44.605469 23.105469 38.175781 17.082031 C 36.230469 15.320312 34.660156 14.4375 33.460938 14.4375 L 28.976562 14.4375 C 28.578125 14.242188 28.175781 13.265625 27.777344 11.5 C 27.480469 10.082031 27.105469 9.199219 26.65625 8.859375 C 26.058594 10.621094 24.214844 11.992188 21.121094 12.96875 C 19.476562 13.460938 18.328125 13.949219 17.679688 14.4375 C 17.132812 16.152344 15.511719 19.628906 12.820312 24.867188 C 10.175781 30.054688 8.78125 33.140625 8.632812 34.121094 M 50.515625 48.953125 L 19.175781 48.953125 C 19.375 45.574219 20.671875 42.34375 23.066406 39.261719 C 24.910156 36.8125 26.007812 35.320312 26.355469 34.78125 C 27.054688 33.703125 27.480469 32.40625 27.628906 30.886719 C 24.386719 32.257812 21.871094 34.21875 20.074219 36.761719 L 19.027344 38.453125 C 18.28125 39.628906 17.804688 40.289062 17.605469 40.433594 C 17.308594 40.679688 16.984375 40.800781 16.632812 40.800781 C 15.089844 40.800781 14.042969 40.289062 13.492188 39.261719 C 13.394531 39.113281 13.34375 38.941406 13.34375 38.746094 C 12.84375 38.992188 12.347656 39.113281 11.847656 39.113281 C 9.453125 39.113281 7.558594 37.644531 6.164062 34.707031 C 6.5625 32.554688 8.65625 27.582031 12.445312 19.800781 C 12.84375 19.066406 13.144531 18.476562 13.34375 18.039062 C 14.839844 14.757812 15.585938 12.285156 15.585938 10.621094 C 15.585938 10.375 15.4375 9.003906 15.136719 6.507812 L 15.734375 6.507812 C 18.429688 6.507812 20.996094 7.339844 23.441406 9.003906 C 24.785156 6.703125 25.90625 5.554688 26.804688 5.554688 C 28.402344 6.386719 29.5 7.5625 30.097656 9.078125 L 30.917969 11.5 C 31.417969 11.402344 31.84375 11.355469 32.191406 11.355469 C 36.179688 11.355469 40.121094 13.851562 44.007812 18.84375 C 48.546875 24.671875 50.816406 32.652344 50.816406 42.785156 C 50.816406 45.085938 50.714844 47.140625 50.515625 48.953125 "/>
</g>
</svg>
