<?xml version="1.0" encoding="UTF-8"?>
<svg xmlns="http://www.w3.org/2000/svg" xmlns:xlink="http://www.w3.org/1999/xlink" width="55px" height="55px" viewBox="0 0 55 54" version="1.1">
<g id="surface1">
<path style=" stroke:none;fill-rule:nonzero;fill:rgb(0%,0%,0%);fill-opacity:1;" d="M 42.570312 45.90625 C 42.570312 40.765625 41.148438 36.921875 38.304688 34.375 C 37.359375 33.496094 36.1875 32.664062 34.792969 31.878906 C 32.847656 30.753906 31.875 29.726562 31.875 28.796875 C 31.875 28.304688 32.371094 27.765625 33.371094 27.179688 C 34.914062 26.347656 35.839844 25.367188 36.136719 24.242188 C 36.238281 23.800781 36.285156 23.261719 36.285156 22.628906 C 36.285156 20.375 35.113281 18.613281 32.773438 17.339844 L 31.425781 16.386719 C 31.175781 16.140625 31.050781 15.871094 31.050781 15.578125 C 31.050781 14.746094 31.351562 13.914062 31.949219 13.082031 C 32.347656 12.542969 32.546875 11.90625 32.546875 11.171875 C 32.546875 9.898438 31.847656 8.96875 30.453125 8.378906 C 30.003906 8.234375 29.554688 8.160156 29.105469 8.160156 C 27.710938 8.160156 26.714844 8.773438 26.113281 9.996094 C 25.914062 10.386719 25.816406 10.78125 25.816406 11.171875 C 25.816406 11.613281 26.140625 12.445312 26.789062 13.667969 C 27.1875 14.351562 27.363281 14.988281 27.3125 15.578125 C 27.3125 16.164062 26.738281 16.753906 25.589844 17.339844 C 23.296875 18.660156 22.152344 20.425781 22.152344 22.628906 C 22.152344 24.535156 23.121094 26.054688 25.066406 27.179688 C 26.015625 27.816406 26.488281 28.355469 26.488281 28.796875 C 26.488281 29.726562 25.515625 30.753906 23.570312 31.878906 C 19.980469 34.035156 17.6875 36.652344 16.691406 39.738281 C 16.140625 41.449219 15.867188 43.507812 15.867188 45.90625 L 42.570312 45.90625 M 13.25 48.84375 C 13.199219 48.253906 13.175781 47.128906 13.175781 45.464844 C 13.175781 39.445312 14.972656 34.941406 18.5625 31.953125 C 19.757812 30.972656 21.277344 30.019531 23.125 29.089844 C 21.230469 28.5 19.957031 27.082031 19.308594 24.832031 C 19.058594 24.097656 18.933594 23.335938 18.933594 22.554688 C 18.933594 19.273438 20.628906 16.921875 24.019531 15.503906 C 23.222656 14.082031 22.824219 12.6875 22.824219 11.316406 C 22.824219 9.066406 23.945312 7.402344 26.191406 6.324219 C 27.136719 5.882812 28.160156 5.664062 29.257812 5.664062 C 31.800781 5.664062 33.667969 6.617188 34.867188 8.527344 C 35.414062 9.359375 35.6875 10.289062 35.6875 11.316406 C 35.6875 12.640625 35.238281 14.035156 34.34375 15.503906 C 37.78125 16.875 39.503906 19.222656 39.503906 22.554688 C 39.503906 25.148438 38.53125 27.105469 36.585938 28.429688 C 36.1875 28.722656 35.738281 28.941406 35.238281 29.089844 C 39.726562 31.339844 42.644531 34.207031 43.992188 37.679688 C 44.839844 39.835938 45.261719 42.429688 45.261719 45.464844 C 45.261719 47.082031 45.238281 48.207031 45.1875 48.84375 L 13.25 48.84375 "/>
</g>
</svg>
