<?xml version="1.0" encoding="UTF-8"?>
<svg xmlns="http://www.w3.org/2000/svg" xmlns:xlink="http://www.w3.org/1999/xlink" width="55px" height="55px" viewBox="0 0 55 54" version="1.1">
<g id="surface1">
<path style=" stroke:none;fill-rule:nonzero;fill:rgb(0%,0%,0%);fill-opacity:1;" d="M 26.074219 33.730469 L 29.367188 33.730469 C 30.113281 33.730469 31.011719 33.757812 32.058594 33.804688 L 39.464844 34.246094 L 39.539062 34.246094 C 40.433594 34.246094 40.882812 34.125 40.882812 33.878906 L 40.882812 33.585938 C 40.882812 32.117188 37.566406 31.164062 30.9375 30.722656 C 29.738281 30.625 28.691406 30.574219 27.796875 30.574219 C 22.910156 30.574219 19.144531 31.0625 16.5 32.042969 C 15.304688 32.484375 14.707031 32.996094 14.707031 33.585938 L 14.707031 33.878906 C 14.707031 34.125 15.15625 34.246094 16.050781 34.246094 L 26.074219 33.730469 M 39.910156 37.035156 C 35.972656 36.546875 31.933594 36.300781 27.796875 36.300781 C 23.457031 36.300781 19.417969 36.546875 15.679688 37.035156 C 16.277344 37.527344 16.574219 38.480469 16.574219 39.902344 C 16.574219 40.832031 16.425781 41.394531 16.128906 41.589844 C 19.117188 41.050781 23.007812 40.78125 27.796875 40.78125 C 32.582031 40.78125 36.472656 41.050781 39.464844 41.589844 C 39.164062 41.394531 39.015625 40.832031 39.015625 39.902344 C 39.015625 38.480469 39.3125 37.527344 39.914062 37.035156 M 27.796875 43.351562 C 25.253906 43.351562 22.410156 43.476562 19.269531 43.71875 C 16.824219 43.914062 15.605469 44.480469 15.605469 45.410156 C 15.605469 46.632812 19.667969 47.246094 27.796875 47.246094 C 35.921875 47.246094 39.988281 46.632812 39.988281 45.410156 C 39.988281 45.015625 39.664062 44.648438 39.015625 44.308594 C 37.121094 43.671875 33.378906 43.351562 27.796875 43.351562 M 27.796875 4.945312 C 26.550781 4.945312 25.925781 5.535156 25.925781 6.707031 C 25.925781 7.980469 26.550781 8.617188 27.796875 8.617188 C 28.992188 8.617188 29.589844 7.980469 29.589844 6.707031 C 29.589844 5.535156 28.992188 4.945312 27.796875 4.945312 M 27.796875 2.816406 C 29.589844 2.816406 30.835938 3.625 31.535156 5.238281 L 31.910156 6.707031 L 31.910156 6.929688 C 31.910156 7.222656 31.710938 7.835938 31.3125 8.765625 C 30.613281 10.773438 30.265625 12.511719 30.265625 13.980469 C 30.265625 16.378906 30.8125 19.925781 31.910156 24.628906 C 34.601562 19.046875 35.949219 14.835938 35.949219 11.996094 L 35.5 8.839844 C 35.5 7.125 36.273438 5.902344 37.816406 5.167969 C 38.367188 4.875 38.964844 4.726562 39.613281 4.726562 C 41.40625 4.726562 42.679688 5.507812 43.425781 7.078125 C 43.726562 7.664062 43.875 8.25 43.875 8.839844 C 43.875 10.113281 43.425781 11.117188 42.53125 11.851562 C 41.183594 13.171875 40.484375 15.324219 40.4375 18.3125 C 40.4375 19.585938 40.558594 21.640625 40.808594 24.480469 C 44.050781 21.199219 45.671875 18.53125 45.671875 16.476562 L 45.296875 13.613281 C 45.296875 11.996094 46.046875 10.796875 47.542969 10.011719 C 48.140625 9.671875 48.761719 9.5 49.410156 9.5 C 51.105469 9.5 52.378906 10.257812 53.226562 11.777344 L 53.675781 13.171875 L 53.675781 13.613281 C 53.675781 15.621094 52.527344 17.136719 50.234375 18.164062 C 50.132812 20.269531 49.3125 24.40625 47.765625 30.574219 C 47.664062 30.867188 47.589844 31.136719 47.542969 31.382812 C 47.542969 32.070312 46.742188 33.242188 45.148438 34.90625 C 43.003906 37.011719 41.933594 38.652344 41.933594 39.828125 C 41.933594 40.367188 42.53125 41.8125 43.726562 44.160156 C 43.925781 44.601562 44.027344 45.261719 44.027344 46.144531 L 44.027344 46.65625 C 43.976562 46.804688 43.949219 46.976562 43.953125 47.171875 L 43.953125 47.246094 L 44.027344 47.320312 C 44.027344 49.082031 39.214844 50.058594 29.589844 50.257812 L 27.722656 50.257812 L 24.578125 50.183594 L 24.503906 50.183594 C 19.816406 50.035156 16.253906 49.644531 13.808594 49.007812 C 12.261719 48.566406 11.492188 48.003906 11.492188 47.320312 C 11.539062 47.269531 11.539062 46.976562 11.492188 46.4375 C 11.441406 46.339844 11.441406 46.242188 11.492188 46.144531 C 11.492188 45.019531 11.863281 43.71875 12.613281 42.25 C 13.210938 41.078125 13.511719 40.269531 13.511719 39.828125 C 13.511719 39.042969 13.085938 38.113281 12.238281 37.039062 L 8.574219 32.925781 C 8.175781 32.386719 7.976562 31.871094 7.976562 31.382812 C 6.429688 25.167969 5.558594 21.125 5.359375 19.265625 C 5.308594 18.875 5.28125 18.507812 5.28125 18.164062 C 2.988281 17.136719 1.84375 15.621094 1.84375 13.613281 C 1.84375 11.996094 2.589844 10.796875 4.085938 10.015625 C 4.734375 9.671875 5.382812 9.5 6.03125 9.5 C 7.777344 9.5 9.023438 10.285156 9.769531 11.851562 C 10.070312 12.386719 10.21875 12.976562 10.21875 13.613281 L 9.84375 16.476562 C 9.84375 18.628906 11.441406 21.296875 14.632812 24.480469 C 14.882812 22.328125 15.007812 20.269531 15.007812 18.3125 C 15.007812 15.621094 14.683594 13.832031 14.035156 12.953125 C 13.785156 12.609375 13.410156 12.21875 12.910156 11.777344 C 12.015625 11.1875 11.566406 10.210938 11.566406 8.839844 C 11.566406 7.125 12.386719 5.878906 14.035156 5.09375 C 14.582031 4.847656 15.179688 4.726562 15.828125 4.726562 C 17.574219 4.726562 18.820312 5.511719 19.570312 7.078125 C 19.867188 7.617188 20.015625 8.203125 20.015625 8.839844 L 19.570312 11.921875 L 19.570312 11.996094 C 19.570312 14.789062 20.914062 18.996094 23.605469 24.628906 C 24.65625 20.171875 25.179688 16.625 25.179688 13.980469 C 25.179688 12.019531 24.804688 10.160156 24.054688 8.398438 C 23.757812 7.710938 23.605469 7.222656 23.605469 6.929688 C 23.605469 5.214844 24.40625 3.992188 26 3.257812 C 26.550781 2.964844 27.148438 2.816406 27.796875 2.816406 M 49.410156 11.847656 C 48.613281 11.847656 48.039062 12.242188 47.691406 13.023438 C 47.640625 13.21875 47.617188 13.417969 47.617188 13.613281 C 47.617188 14.589844 48.066406 15.203125 48.960938 15.449219 C 49.113281 15.496094 49.261719 15.519531 49.410156 15.519531 C 50.65625 15.519531 51.28125 14.886719 51.28125 13.613281 C 51.28125 12.4375 50.65625 11.847656 49.410156 11.847656 M 39.613281 7.148438 C 38.765625 7.148438 38.191406 7.566406 37.894531 8.398438 L 37.816406 8.984375 C 37.816406 9.867188 38.242188 10.453125 39.089844 10.75 C 39.238281 10.796875 39.414062 10.820312 39.613281 10.820312 C 40.910156 10.820312 41.558594 10.210938 41.558594 8.984375 C 41.558594 7.761719 40.910156 7.148438 39.613281 7.148438 M 15.828125 7.148438 C 14.582031 7.148438 13.957031 7.761719 13.957031 8.984375 C 13.957031 10.210938 14.582031 10.820312 15.828125 10.820312 C 17.023438 10.820312 17.625 10.210938 17.625 8.984375 C 17.625 7.761719 17.023438 7.148438 15.828125 7.148438 M 6.03125 11.851562 C 4.785156 11.851562 4.160156 12.4375 4.160156 13.613281 C 4.160156 14.886719 4.785156 15.519531 6.03125 15.519531 C 7.226562 15.519531 7.824219 14.886719 7.824219 13.613281 C 7.824219 12.78125 7.402344 12.21875 6.554688 11.921875 C 6.40625 11.875 6.230469 11.847656 6.03125 11.847656 M 27.796875 16.550781 C 27.097656 20.859375 26.199219 23.964844 25.101562 25.875 L 23.980469 27.636719 L 23.980469 27.710938 C 23.832031 27.566406 23.183594 26.832031 22.035156 25.507812 C 20.589844 23.84375 19.070312 20.6875 17.472656 16.035156 C 17.574219 16.722656 17.625 17.429688 17.625 18.164062 C 17.625 20.464844 17.199219 24.015625 16.351562 28.8125 C 13.660156 27.246094 11.042969 24.75 8.5 21.324219 C 9.347656 25.535156 9.996094 28.300781 10.445312 29.621094 C 10.742188 30.601562 11.117188 31.164062 11.566406 31.308594 C 15.652344 29.007812 21.066406 27.859375 27.796875 27.859375 C 34.578125 27.859375 39.988281 29.007812 44.027344 31.308594 C 44.925781 31.015625 45.921875 27.6875 47.019531 21.324219 C 44.425781 24.847656 41.832031 27.34375 39.238281 28.8125 C 38.390625 24.554688 37.96875 21.199219 37.96875 18.753906 C 37.96875 18.117188 38.019531 17.210938 38.117188 16.035156 C 37.121094 18.972656 35.972656 21.589844 34.675781 23.894531 C 33.980469 24.921875 33.207031 25.898438 32.359375 26.832031 C 31.960938 27.222656 31.710938 27.515625 31.609375 27.710938 L 29.964844 24.847656 C 29.914062 24.652344 29.839844 24.457031 29.742188 24.261719 C 29.34375 23.183594 28.695312 20.613281 27.796875 16.550781 "/>
</g>
</svg>
