<?xml version="1.0" encoding="UTF-8"?>
<svg xmlns="http://www.w3.org/2000/svg" xmlns:xlink="http://www.w3.org/1999/xlink" width="55px" height="55px" viewBox="0 0 55 54" version="1.1">
<g id="surface1">
<path style=" stroke:none;fill-rule:nonzero;fill:rgb(0%,0%,0%);fill-opacity:1;" d="M 20.691406 20.3125 L 20.691406 33.3125 L 37.746094 33.3125 L 37.746094 20.3125 L 20.691406 20.3125 M 11.867188 48.804688 L 10.445312 47.410156 L 10.445312 42.34375 L 18.074219 34.78125 L 18.074219 20.09375 L 11.492188 14.4375 L 11.492188 7.757812 L 13.660156 5.699219 L 20.394531 5.699219 L 21.664062 6.949219 L 21.664062 8.859375 L 23.835938 8.859375 L 23.835938 6.949219 L 25.105469 5.699219 L 33.332031 5.699219 L 34.605469 6.949219 L 34.605469 8.859375 L 36.699219 8.859375 L 36.699219 6.949219 L 38.046875 5.699219 L 44.777344 5.699219 L 46.945312 7.757812 L 46.945312 14.4375 L 40.363281 20.09375 L 40.363281 34.78125 L 47.992188 42.34375 L 47.992188 47.410156 L 46.570312 48.804688 L 11.867188 48.804688 M 13.0625 43.003906 L 13.0625 45.867188 L 45.375 45.867188 L 45.375 43.003906 L 13.0625 43.003906 M 20.394531 35.734375 L 15.457031 40.433594 L 42.980469 40.433594 L 38.046875 35.734375 L 20.394531 35.734375 M 26.378906 8.785156 L 26.378906 10.695312 L 25.253906 11.722656 L 20.394531 11.722656 L 19.273438 10.695312 L 19.273438 8.636719 L 15.082031 8.636719 L 14.109375 9.664062 L 14.109375 13.777344 L 19.195312 17.816406 L 39.242188 17.816406 L 44.328125 13.777344 L 44.328125 9.664062 L 43.355469 8.636719 L 39.167969 8.636719 L 39.167969 10.695312 L 38.046875 11.722656 L 33.183594 11.722656 L 32.0625 10.695312 L 32.0625 8.785156 L 26.378906 8.785156 "/>
</g>
</svg>
